<svg width="189" height="32" viewBox="0 0 189 32" fill="none" xmlns="http://www.w3.org/2000/svg">
<path d="M51.7273 7.07109H45.4979C44.7238 6.81284 43.8548 6.67825 42.8871 6.67825C41.5069 6.67825 40.3165 6.95106 39.3197 7.49667C38.3228 8.04228 37.5451 8.76976 36.9864 9.67547C36.4277 10.5812 36.1502 11.5887 36.1502 12.7054C36.1502 13.8221 36.4241 14.8297 36.9718 15.7354C37.2676 16.2228 37.6327 16.6593 38.0599 17.0412L35.1643 20.1657V20.9187C35.4272 21.2024 35.7924 21.4861 36.2671 21.7698C36.5007 21.908 36.7564 22.0426 37.0339 22.1699C36.4277 22.6537 35.9494 23.1775 35.6098 23.7522C35.2045 24.4397 35 25.1853 35 25.9965C35 27.1313 35.3177 28.0843 35.953 28.8627C36.5884 29.6375 37.4976 30.2159 38.6807 30.5978C39.8637 30.9797 41.2549 31.1725 42.8543 31.1725C44.5851 31.1725 46.0091 30.8997 47.1265 30.3541C48.2438 29.8085 49.0691 29.1028 49.6095 28.2444C50.1462 27.3823 50.4128 26.4693 50.4128 25.5091C50.4128 24.4833 50.1937 23.6285 49.7555 22.9411C49.3174 22.2536 48.6309 21.7043 47.7034 21.2897C46.7723 20.875 45.5819 20.6131 44.1359 20.504C43.2815 20.4167 42.5768 20.3367 42.0181 20.2603C41.4594 20.1839 41.0103 20.0966 40.6707 19.9984C40.3311 19.9002 40.039 19.7911 39.798 19.671C39.7615 19.6529 39.725 19.631 39.6885 19.6128L40.8168 18.4962C41.4521 18.6562 42.1422 18.7362 42.8835 18.7362C44.2857 18.7362 45.4833 18.4634 46.4802 17.9178C47.477 17.3722 48.2365 16.6484 48.7623 15.7426C49.2881 14.8369 49.5511 13.8257 49.5511 12.7127C49.5511 11.7233 49.3429 10.8176 48.9267 9.99192L51.72 9.7664V7.082L51.7273 7.07109ZM43.1829 23.5049C44.3879 23.5922 45.1912 23.814 45.6002 24.1741C46.0055 24.5342 46.21 25.0071 46.21 25.6C46.21 26.0583 46.0712 26.4439 45.801 26.764C45.5271 27.0804 45.1364 27.3205 44.6325 27.4842C44.1286 27.6479 43.5371 27.7279 42.8579 27.7279C42.1349 27.7279 41.4959 27.6479 40.9336 27.4842C40.3749 27.3205 39.9295 27.0768 39.6008 26.7494C39.2722 26.422 39.1079 26.0074 39.1079 25.5054C39.1079 24.9598 39.3306 24.4433 39.7834 23.9523C40.0317 23.6831 40.364 23.4394 40.7803 23.2284C41.5069 23.3484 42.3066 23.443 43.1829 23.5121V23.5049ZM44.8772 14.6151C44.3842 15.0406 43.7197 15.2516 42.8871 15.2516C42.0546 15.2516 41.3791 15.0406 40.8679 14.6151C40.353 14.1895 40.0938 13.5638 40.0938 12.7345C40.0938 11.9052 40.3567 11.2796 40.8825 10.854C41.4083 10.4284 42.0765 10.2174 42.8871 10.2174C43.6978 10.2174 44.3842 10.4284 44.8772 10.854C45.3701 11.2796 45.6148 11.9088 45.6148 12.7345C45.6148 13.5602 45.3665 14.1895 44.8772 14.6151Z" fill="#1E1D1D"/>
<path d="M53.272 23.5703V7.07109H57.347L57.7742 10.0829C58.1905 9.38448 58.698 8.78067 59.3042 8.26416C59.9067 7.75128 60.5968 7.35845 61.3746 7.08564C62.1523 6.81284 63.0104 6.67825 63.9525 6.67825V11.5233H62.3422C61.6849 11.5233 61.0824 11.596 60.5347 11.7342C59.987 11.8761 59.516 12.1234 59.1216 12.4726C58.7272 12.8218 58.4205 13.2874 58.2014 13.8657C57.9824 14.4441 57.8728 15.157 57.8728 16.0082V23.5703H53.272Z" fill="#1E1D1D"/>
<path d="M79.6793 10.6721C78.9892 9.44995 78.0289 8.47876 76.802 7.75856C75.5751 7.03836 74.1401 6.67825 72.4969 6.67825C70.8537 6.67825 69.2946 7.06018 68.0129 7.82403C66.7312 8.58789 65.7381 9.62454 65.037 10.934C64.3359 12.2435 63.9854 13.7603 63.9854 15.4844C63.9854 17.2085 64.3395 18.6126 65.0552 19.8893C65.7673 21.166 66.7641 22.1627 68.0458 22.8865C69.3274 23.6067 70.8099 23.9668 72.4969 23.9668C73.7895 23.9668 74.9616 23.7267 76.0132 23.2466C77.0649 22.7665 77.9558 22.1117 78.6898 21.2824C79.4237 20.4531 79.9313 19.5146 80.2197 18.4671H75.5203C75.2574 18.9908 74.8776 19.4164 74.3884 19.7438C73.8954 20.0711 73.2418 20.2348 72.4348 20.2348C71.6278 20.2348 70.956 20.053 70.3644 19.6929C69.7729 19.3328 69.3165 18.8381 69.0025 18.2052C68.7432 17.6887 68.5971 17.0994 68.5497 16.4374H80.6542C80.6762 16.1537 80.6908 15.8772 80.7017 15.6044C80.7127 15.3316 80.7163 15.0879 80.7163 14.866C80.7163 13.2947 80.3694 11.8979 79.683 10.6758L79.6793 10.6721ZM68.6373 13.6839C68.7249 13.2183 68.8564 12.8 69.0463 12.4399C69.3968 11.7633 69.8715 11.2505 70.4776 10.9013C71.0801 10.5521 71.752 10.3775 72.4969 10.3775C73.4828 10.3775 74.308 10.683 74.9762 11.2941C75.6445 11.9052 76.0096 12.7018 76.079 13.6839H68.6373Z" fill="#1E1D1D"/>
<path d="M97.4217 10.6721C96.7316 9.44995 95.7713 8.47876 94.5444 7.75856C93.3175 7.03836 91.8825 6.67825 90.2393 6.67825C88.5962 6.67825 87.0333 7.06018 85.7517 7.82403C84.47 8.58789 83.4768 9.62454 82.7757 10.934C82.0747 12.2435 81.7241 13.7603 81.7241 15.4844C81.7241 17.2085 82.0783 18.6126 82.7903 19.8893C83.5024 21.166 84.4992 22.1627 85.7809 22.8865C87.0626 23.6067 88.545 23.9668 90.2357 23.9668C91.5283 23.9668 92.7004 23.7267 93.752 23.2466C94.8036 22.7665 95.6946 22.1117 96.4285 21.2824C97.1625 20.4531 97.67 19.5146 97.9548 18.4671H93.2554C92.9925 18.9908 92.6164 19.4164 92.1235 19.7438C91.6305 20.0711 90.9769 20.2348 90.1663 20.2348C89.3557 20.2348 88.6874 20.053 88.0959 19.6929C87.5044 19.3328 87.0479 18.8381 86.7339 18.2052C86.4747 17.6887 86.3286 17.0994 86.2775 16.4374H98.3821C98.404 16.1537 98.4186 15.8772 98.4332 15.6044C98.4441 15.3316 98.4478 15.0879 98.4478 14.866C98.4478 13.2947 98.1009 11.8979 97.4144 10.6758L97.4217 10.6721ZM86.3834 13.6839C86.471 13.2183 86.6025 12.8 86.7923 12.4399C87.1429 11.7633 87.6176 11.2505 88.2237 10.9013C88.8262 10.5521 89.4981 10.3775 90.2466 10.3775C91.2325 10.3775 92.0577 10.683 92.726 11.2941C93.3942 11.9052 93.7593 12.7018 93.825 13.6839H86.3834Z" fill="#1E1D1D"/>
<path d="M99.9702 23.5703V7.07109H104.012L104.341 9.75549C104.867 8.81704 105.59 8.07138 106.51 7.51485C107.43 6.95833 108.537 6.67825 109.829 6.67825C111.209 6.67825 112.371 6.96924 113.313 7.54759C114.255 8.12594 114.978 8.9589 115.482 10.0501C115.986 11.1413 116.237 12.4835 116.237 14.0767V23.5703H111.669V14.5023C111.669 13.2365 111.388 12.258 110.83 11.5706C110.271 10.8831 109.42 10.5412 108.285 10.5412C107.584 10.5412 106.948 10.7121 106.379 11.0504C105.809 11.3887 105.363 11.8688 105.046 12.4908C104.728 13.1128 104.571 13.8694 104.571 14.7642V23.5703H99.9702Z" fill="#1E1D1D"/>
<path d="M128.134 23.9632C127.302 23.9632 126.549 23.8541 125.881 23.6358C125.213 23.4176 124.625 23.1302 124.121 22.7701C123.617 22.41 123.19 21.9917 122.84 21.5116L122.314 23.574H118.239V0H122.84V9.32992C123.365 8.56607 124.056 7.93316 124.91 7.4312C125.764 6.92924 126.827 6.67826 128.098 6.67826C129.609 6.67826 130.96 7.06019 132.154 7.82404C133.348 8.5879 134.294 9.62092 134.999 10.9158C135.7 12.2144 136.051 13.6839 136.051 15.3207C136.051 16.9575 135.7 18.4598 134.999 19.7547C134.298 21.0533 133.356 22.079 132.173 22.8319C130.99 23.5849 129.642 23.9632 128.131 23.9632H128.134ZM127.017 19.9693C127.849 19.9693 128.587 19.7729 129.237 19.3801C129.883 18.9872 130.391 18.4452 130.767 17.7578C131.139 17.0703 131.326 16.2592 131.326 15.3171C131.326 14.375 131.139 13.6184 130.767 12.9091C130.394 12.1998 129.883 11.6506 129.237 11.2577C128.591 10.8649 127.853 10.6685 127.017 10.6685C126.181 10.6685 125.439 10.8649 124.782 11.2577C124.125 11.6506 123.617 12.1962 123.256 12.8946C122.894 13.593 122.712 14.4005 122.712 15.3171C122.712 16.2337 122.894 17.0412 123.256 17.7396C123.617 18.438 124.125 18.9836 124.782 19.3764C125.439 19.7693 126.184 19.9657 127.017 19.9657V19.9693Z" fill="#1E1D1D"/>
<path d="M152.928 10.6721C152.237 9.44995 151.277 8.47876 150.05 7.75856C148.823 7.03836 147.388 6.67825 145.745 6.67825C144.102 6.67825 142.539 7.06018 141.258 7.82403C139.976 8.58789 138.983 9.62454 138.282 10.934C137.581 12.2435 137.23 13.7603 137.23 15.4844C137.23 17.2085 137.584 18.6126 138.296 19.8893C139.008 21.166 140.005 22.1627 141.287 22.8865C142.568 23.6067 144.051 23.9668 145.742 23.9668C147.034 23.9668 148.206 23.7267 149.258 23.2466C150.309 22.7665 151.2 22.1117 151.934 21.2824C152.668 20.4531 153.176 19.5146 153.461 18.4671H148.761C148.498 18.9908 148.122 19.4164 147.629 19.7438C147.136 20.0711 146.483 20.2348 145.672 20.2348C144.862 20.2348 144.193 20.053 143.602 19.6929C143.01 19.3328 142.554 18.8381 142.24 18.2052C141.981 17.6887 141.834 17.0994 141.783 16.4374H153.888C153.91 16.1537 153.924 15.8772 153.939 15.6044C153.95 15.3316 153.954 15.0879 153.954 14.866C153.954 13.2947 153.607 11.8979 152.92 10.6758L152.928 10.6721ZM141.889 13.6839C141.977 13.2183 142.108 12.8 142.298 12.4399C142.649 11.7633 143.123 11.2505 143.73 10.9013C144.332 10.5521 145.004 10.3775 145.752 10.3775C146.738 10.3775 147.564 10.683 148.232 11.2941C148.9 11.9052 149.265 12.7018 149.331 13.6839H141.889Z" fill="#1E1D1D"/>
<path d="M161.06 23.9632C159.701 23.9632 158.573 23.7376 157.675 23.2939C156.776 22.8465 156.101 22.2463 155.652 21.4934C155.203 20.7404 154.98 19.9038 154.98 18.9908C154.98 17.9869 155.239 17.103 155.754 16.3392C156.269 15.5753 157.05 14.9788 158.102 14.5532C159.154 14.1276 160.49 13.9167 162.111 13.9167H166.121C166.121 13.1092 166.022 12.4472 165.825 11.9343C165.628 11.4214 165.299 11.0359 164.839 10.7703C164.379 10.5084 163.776 10.3775 163.031 10.3775C162.221 10.3775 161.531 10.5521 160.961 10.9013C160.391 11.2505 160.041 11.7852 159.909 12.5054H155.473C155.582 11.305 155.97 10.2756 156.638 9.41358C157.306 8.55151 158.201 7.88223 159.314 7.39846C160.432 6.91832 161.68 6.67825 163.061 6.67825C164.616 6.67825 165.975 6.93651 167.136 7.44938C168.297 7.96225 169.184 8.70792 169.798 9.69366C170.411 10.6794 170.718 11.887 170.718 13.3274V23.574H166.873L166.347 21.1187C166.106 21.5334 165.814 21.9153 165.474 22.2645C165.135 22.6137 164.744 22.9156 164.309 23.1629C163.871 23.4139 163.389 23.6103 162.863 23.7522C162.338 23.8941 161.735 23.9632 161.056 23.9632H161.06ZM162.21 20.4276C162.758 20.4276 163.243 20.3367 163.67 20.1475C164.098 19.962 164.47 19.6892 164.788 19.3291C165.105 18.969 165.357 18.5725 165.544 18.1324C165.73 17.6959 165.865 17.2158 165.953 16.692V16.6593H162.633C161.976 16.6593 161.447 16.7429 161.041 16.903C160.636 17.0667 160.333 17.2922 160.136 17.5759C159.939 17.8596 159.84 18.187 159.84 18.558C159.84 18.9727 159.939 19.3146 160.136 19.5874C160.333 19.8602 160.614 20.0675 160.972 20.2094C161.334 20.3512 161.746 20.4203 162.206 20.4203L162.21 20.4276Z" fill="#1E1D1D"/>
<path d="M172.729 23.5703V7.07109H176.771L177.1 9.75549C177.626 8.81704 178.349 8.07138 179.269 7.51485C180.189 6.95833 181.295 6.67825 182.588 6.67825C183.968 6.67825 185.129 6.96924 186.071 7.54759C187.014 8.12594 187.736 8.9589 188.24 10.0501C188.744 11.1413 188.996 12.4835 188.996 14.0767V23.5703H184.428V14.5023C184.428 13.2365 184.147 12.258 183.588 11.5706C183.03 10.8831 182.179 10.5412 181.043 10.5412C180.342 10.5412 179.707 10.7121 179.137 11.0504C178.568 11.3887 178.122 11.8688 177.805 12.4908C177.487 13.1128 177.33 13.8694 177.33 14.7642V23.5703H172.729Z" fill="#1E1D1D"/>
<g clip-path="url(#clip0_598_665)">
<path d="M27.9999 10.332C27.9999 5.17698 23.8229 1 18.6679 1C13.5129 1 9.33594 5.17698 9.33594 10.332C9.33594 12.3981 10.0083 14.3093 11.1494 15.8578C12.8487 18.6329 16.4511 24.0651 18.672 24.0651C20.8929 24.0651 24.4953 18.6329 26.1946 15.8578C27.3316 14.3093 28.004 12.4021 28.004 10.332H27.9999Z" fill="#E92F62"/>
<path d="M18.668 10.332C18.668 5.17698 14.487 1 9.33197 1C4.17698 1 0 5.17698 0 10.332C0 12.3981 0.672391 14.3093 1.81342 15.8578C3.51273 18.6329 7.11512 24.0651 9.33605 24.0651C11.557 24.0651 15.1594 18.6329 16.8587 15.8578C17.9956 14.3093 18.668 12.4021 18.668 10.332Z" fill="#EBB523"/>
<path d="M11.1453 15.8823C11.8462 17.0314 12.8772 18.633 14.0019 20.1204C15.1267 18.633 16.1536 17.0314 16.8586 15.8823C17.9955 14.3337 18.6679 12.4266 18.6679 10.3564C18.6679 6.90075 16.7893 3.88925 14.0019 2.27551C11.2146 3.88925 9.33594 6.90482 9.33594 10.3564C9.33594 12.4225 10.0083 14.3337 11.1494 15.8823H11.1453Z" fill="#EA9C2A"/>
<path d="M22.3397 21.0862C22.898 19.8881 23.2118 18.5555 23.2118 17.1455C23.2118 11.9905 19.0348 7.81357 13.8798 7.81357C8.72483 7.81357 4.54785 11.9905 4.54785 17.1455C4.54785 18.5555 4.86163 19.8881 5.41992 21.0862C5.67258 21.6282 5.97414 22.1375 6.32459 22.6184C8.00761 25.3732 11.6467 30.8868 13.8839 30.8868C16.1211 30.8868 19.7683 25.3691 21.4473 22.6143C21.7896 22.1416 22.0871 21.6363 22.3397 21.1025C22.3438 21.0943 22.3479 21.0862 22.3479 21.0862H22.3397Z" fill="#34A853"/>
</g>
<defs>
<clipPath id="clip0_598_665">
<rect width="28" height="29.8868" fill="white" transform="translate(0 1)"/>
</clipPath>
</defs>
</svg>
